PathFileType	4	(X/Y/Z)	./resultDataOpenSim/trcMotMarkerGrf/sub10/qtm-02-04.trc
DataRate	CameraRate	NumFrames	NumMarkers	Units	OrigDataRate	OrigDataStartFrame	OrigNumFrames
250.000000	250.000000	5	24	m	250.000000	184	490
Frame#	Time	L.Toe.Tip			R.Toe.Tip			L.Ankle.Lat			R.Ankle.Lat			L.Ankle.Med			R.Ankle.Med			L.Heel			R.Heel			L.Knee.Lat			R.Knee.Lat			L.Knee.Med			R.Knee.Med			L.Thigh.Upper			R.Thigh.Upper			L.ASIS			R.ASIS			V.Sacral			L.Acromium			R.Acromium			C7			L.Elbow			R.Elbow			L.Wrist.Lat			R.Wrist.Lat
		X1	Y1	Z1	X2	Y2	Z2	X3	Y3	Z3	X4	Y4	Z4	X5	Y5	Z5	X6	Y6	Z6	X7	Y7	Z7	X8	Y8	Z8	X9	Y9	Z9	X10	Y10	Z10	X11	Y11	Z11	X12	Y12	Z12	X13	Y13	Z13	X14	Y14	Z14	X15	Y15	Z15	X16	Y16	Z16	X17	Y17	Z17	X18	Y18	Z18	X19	Y19	Z19	X20	Y20	Z20	X21	Y21	Z21	X22	Y22	Z22	X23	Y23	Z23	X24	Y24	Z24

184	0.732	0.022297595	0.021994939	-0.13625095	-0.73613271	0.038813273	0.015600319	-0.11144135	0.044156948	-0.16481451	-0.81648378	0.14878522	0.046067772	-0.10545061	0.065702445	-0.080694626	-0.7794241	0.14545285	-0.03525354	-0.17617238	0.011430117	-0.12316015	-0.8697664	0.15990222	-0.0023884677	-0.11045141	0.43744433	-0.18352235	-0.50608326	0.39437411	0.072487616	-0.10179599	0.41702317	-0.062791141	-0.47348243	0.38573188	-0.051889331	-0.27089098	0.78435951	-0.23751391	-0.40039073	0.78018963	0.1337021	-0.24829796	0.88452416	-0.15204549	-0.3020372	0.87314623	0.085139599	-0.46858973	0.8852006	-0.088149707	-0.3569893	1.3421246	-0.21514499	-0.38538889	1.3414959	0.11066431	-0.45871842	1.367618	-0.064949586	-0.49725119	1.0285727	-0.2670753	-0.40208027	0.98124296	0.16785098	-0.40200316	0.81066918	-0.32416211	-0.17848106	0.87093441	0.14443654
185	0.736	0.023065755	0.021135218	-0.13648816	-0.73493825	0.038657391	0.015296983	-0.11094311	0.04394271	-0.1646725	-0.80919442	0.15310845	0.045488925	-0.10472917	0.065308875	-0.080392118	-0.77129788	0.14750503	-0.03484954	-0.17581913	0.011623056	-0.12306916	-0.86057348	0.16619683	-0.0040799173	-0.10506036	0.43676328	-0.18379311	-0.49536894	0.3934744	0.072534574	-0.095051781	0.41745427	-0.063205222	-0.46243675	0.38397719	-0.051503782	-0.26513629	0.78480347	-0.23872855	-0.39187049	0.77907498	0.13308951	-0.24153563	0.8856021	-0.15329513	-0.29440249	0.87287416	0.083601113	-0.46189909	0.88510718	-0.087818043	-0.35063364	1.3420467	-0.21592833	-0.37868098	1.3417683	0.10980458	-0.45217517	1.3674694	-0.065641928	-0.48968498	1.0280368	-0.26720192	-0.39714864	0.98166608	0.16604906	-0.394396	0.8102142	-0.32453592	-0.17406355	0.87017433	0.14392056
186	0.74	0.023689777	0.020431319	-0.13621874	-0.73344557	0.038637635	0.014908752	-0.11048747	0.043682764	-0.16447812	-0.80148933	0.15735706	0.044938204	-0.10416299	0.064903108	-0.080064127	-0.76291548	0.14983257	-0.03465467	-0.17559284	0.0117499	-0.12309159	-0.85073294	0.1725423	-0.005603497	-0.10016049	0.4357888	-0.18407643	-0.48442972	0.39246864	0.072661464	-0.088809379	0.41749519	-0.063615509	-0.45085468	0.38191803	-0.051065573	-0.25941288	0.7851462	-0.2399439	-0.38332875	0.77796217	0.13235563	-0.23486435	0.88669744	-0.15460327	-0.28682127	0.87260303	0.08202828	-0.45524758	0.88498551	-0.087737452	-0.34426254	1.3419815	-0.21670946	-0.37195603	1.3420165	0.10893881	-0.4456383	1.3673358	-0.066337903	-0.48213978	1.0275176	-0.26748559	-0.39215198	0.98218142	0.16404624	-0.38668231	0.80977717	-0.32491035	-0.16971925	0.86936059	0.14345526
187	0.744	0.024212003	0.019842149	-0.13566122	-0.73151193	0.03888909	0.014411673	-0.10999053	0.043416219	-0.16419015	-0.79343327	0.16153245	0.044407839	-0.1036982	0.064474537	-0.079714812	-0.75432264	0.15248127	-0.034700541	-0.17542305	0.011845529	-0.12309304	-0.84082434	0.17875741	-0.0066342217	-0.095699588	0.4346048	-0.18435846	-0.47331977	0.39136145	0.072873202	-0.083175208	0.41714876	-0.063982496	-0.43877305	0.37956232	-0.050572145	-0.25368969	0.78539919	-0.24117722	-0.37480275	0.77683801	0.13151237	-0.22833252	0.88780924	-0.15596069	-0.27927145	0.87233468	0.080405873	-0.44861218	0.88481611	-0.08792718	-0.33787475	1.341935	-0.21747355	-0.36521063	1.3422419	0.10806696	-0.43909913	1.3672294	-0.067035547	-0.47460573	1.0270113	-0.26791112	-0.3871234	0.98276856	0.16191203	-0.37885679	0.80936943	-0.32529919	-0.16545137	0.8684926	0.1430513
188	0.748	0.024662598	0.019334495	-0.13510219	-0.72908951	0.039521866	0.013845269	-0.10945282	0.04317115	-0.16383916	-0.7850181	0.1656674	0.04390155	-0.10333363	0.063993747	-0.079386186	-0.74550763	0.15531585	-0.034848881	-0.17526223	0.011932731	-0.12300792	-0.83104551	0.18478185	-0.0072866425	-0.091651107	0.43328426	-0.18461556	-0.46206229	0.39016199	0.073168331	-0.078246225	0.41642608	-0.06427977	-0.42625808	0.37694169	-0.050012407	-0.24795092	0.78557467	-0.24243387	-0.36634306	0.77568894	0.13058925	-0.22194626	0.88892942	-0.15736544	-0.27175951	0.87206775	0.078730759	-0.44204475	0.88466157	-0.088119773	-0.33144686	1.3419121	-0.21821006	-0.35846474	1.3424445	0.10720051	-0.43256036	1.3671594	-0.067733979	-0.46706002	1.0265084	-0.26842065	-0.38217648	0.9833538	0.15988436	-0.3709206	0.80899717	-0.32570906	-0.16126242	0.86757135	0.14271659
